<svg xmlns="http://www.w3.org/2000/svg" xmlns:xlink="http://www.w3.org/1999/xlink" viewBox="0 0 100 150">
  <defs>
    <style>
      .cls-1 {
        fill: #fff;
      }

      .cls-2 {
        font-size: 14px;
        font-family: HelveticaNeue-Bold, Helvetica Neue;
        font-weight: 700;
      }

      .cls-3 {
        filter: url(#Rectangle_1);
      }
    </style>
    <filter id="Rectangle_1" x="0" y="0" width="100" height="150" filterUnits="userSpaceOnUse">
      <feOffset dx="3" dy="3" input="SourceAlpha"/>
      <feGaussianBlur stdDeviation="10" result="blur"/>
      <feFlood flood-opacity="0.102"/>
      <feComposite operator="in" in2="blur"/>
      <feComposite in="SourceGraphic"/>
    </filter>
  </defs>
  <g id="Group_261" data-name="Group 261" transform="translate(-759 -864)">
    <g id="Group_235" data-name="Group 235" transform="translate(-15 641)">
      <g id="Symbol_5_271" data-name="Symbol 5 – 271" transform="translate(661 6)">
        <g class="cls-3" transform="matrix(1, 0, 0, 1, 113, 217)">
          <rect id="Rectangle_1-2" data-name="Rectangle 1" class="cls-1" width="100" height="150" rx="5" />
        </g>
      </g>
      <g id="Group_8" data-name="Group 8" transform="translate(-27 -30)">
        <text id="_7" data-name="7" class="cls-2" transform="translate(808 269)"><tspan x="0" y="0">7</tspan></text>
        <g id="Symbol_3_118" data-name="Symbol 3 – 118" transform="translate(314.423 -53)">
          <path id="Union_2" data-name="Union 2" d="M5.023,11l.732-3.932H5.423A2.712,2.712,0,1,1,4.657,5.1h.211a2.712,2.712,0,1,1,2.591,0h.211a2.712,2.712,0,1,1-.766,1.973H6.423L7.173,11Z" transform="translate(491.577 325.085)"/>
        </g>
      </g>
      <g id="Group_9" data-name="Group 9" transform="translate(1675.328 626.085) rotate(180)">
        <text id="_7-2" data-name="7" class="cls-2" transform="translate(808 269)"><tspan x="0" y="0">7</tspan></text>
        <g id="Symbol_3_119" data-name="Symbol 3 – 119" transform="translate(314.423 -53)">
          <path id="Union_2-2" data-name="Union 2" d="M5.023,11l.732-3.932H5.423A2.712,2.712,0,1,1,4.657,5.1h.211a2.712,2.712,0,1,1,2.591,0h.211a2.712,2.712,0,1,1-.766,1.973H6.423L7.173,11Z" transform="translate(491.577 325.085)"/>
        </g>
      </g>
    </g>
    <g id="Group_260" data-name="Group 260" transform="translate(-27.052 28)">
      <g id="Group_247" data-name="Group 247" transform="translate(471 1.931)">
        <path id="Union_15" data-name="Union 15" d="M7.305,16,8.37,10.281H7.888A3.945,3.945,0,1,1,6.774,7.412h.308a3.945,3.945,0,1,1,3.769,0h.308a3.945,3.945,0,1,1-1.114,2.869h-.7L10.433,16Z" transform="translate(345.947 885.069)"/>
        <path id="Union_16" data-name="Union 16" d="M7.305,16,8.37,10.281H7.888A3.945,3.945,0,1,1,6.774,7.412h.308a3.945,3.945,0,1,1,3.769,0h.308a3.945,3.945,0,1,1-1.114,2.869h-.7L10.433,16Z" transform="translate(345.947 902.069)"/>
        <path id="Union_17" data-name="Union 17" d="M7.305,16,8.37,10.281H7.888A3.945,3.945,0,1,1,6.774,7.412h.308a3.945,3.945,0,1,1,3.769,0h.308a3.945,3.945,0,1,1-1.114,2.869h-.7L10.433,16Z" transform="translate(345.947 919.069)"/>
      </g>
      <g id="Group_246" data-name="Group 246" transform="translate(492 9.931)">
        <path id="Union_15-2" data-name="Union 15" d="M7.305,16,8.37,10.281H7.888A3.945,3.945,0,1,1,6.774,7.412h.308a3.945,3.945,0,1,1,3.769,0h.308a3.945,3.945,0,1,1-1.114,2.869h-.7L10.433,16Z" transform="translate(345.947 885.069)"/>
        <path id="Union_20" data-name="Union 20" d="M7.305,16,8.37,10.281H7.888A3.945,3.945,0,1,1,6.774,7.412h.308a3.945,3.945,0,1,1,3.769,0h.308a3.945,3.945,0,1,1-1.114,2.869h-.7L10.433,16Z" transform="translate(345.947 868.069)"/>
        <path id="Union_16-2" data-name="Union 16" d="M7.305,16,8.37,10.281H7.888A3.945,3.945,0,1,1,6.774,7.412h.308a3.945,3.945,0,1,1,3.769,0h.308a3.945,3.945,0,1,1-1.114,2.869h-.7L10.433,16Z" transform="translate(345.947 902.069)"/>
        <path id="Union_17-2" data-name="Union 17" d="M7.305,16,8.37,10.281H7.888A3.945,3.945,0,1,1,6.774,7.412h.308a3.945,3.945,0,1,1,3.769,0h.308a3.945,3.945,0,1,1-1.114,2.869h-.7L10.433,16Z" transform="translate(345.947 919.069)"/>
      </g>
    </g>
  </g>
</svg>
