<svg xmlns="http://www.w3.org/2000/svg" xmlns:xlink="http://www.w3.org/1999/xlink" viewBox="0 0 100 150">
  <defs>
    <style>
      .cls-1 {
        fill: #fff;
      }

      .cls-2 {
        font-size: 14px;
        font-family: HelveticaNeue-Bold, Helvetica Neue;
        font-weight: 700;
      }

      .cls-3 {
        filter: url(#Rectangle_1);
      }
    </style>
    <filter id="Rectangle_1" x="0" y="0" width="100" height="150" filterUnits="userSpaceOnUse">
      <feOffset dx="3" dy="3" input="SourceAlpha"/>
      <feGaussianBlur stdDeviation="10" result="blur"/>
      <feFlood flood-opacity="0.102"/>
      <feComposite operator="in" in2="blur"/>
      <feComposite in="SourceGraphic"/>
    </filter>
  </defs>
  <g id="Group_264" data-name="Group 264" transform="translate(-525 -841)">
    <g id="Group_233" data-name="Group 233" transform="translate(-249 618)">
      <g id="Symbol_5_287" data-name="Symbol 5 – 287" transform="translate(661 6)">
        <g class="cls-3" transform="matrix(1, 0, 0, 1, 113, 217)">
          <rect id="Rectangle_1-2" data-name="Rectangle 1" class="cls-1" width="100" height="150" rx="5" />
        </g>
      </g>
      <g id="Group_8" data-name="Group 8" transform="translate(-27 -30)">
        <text id="_5" data-name="5" class="cls-2" transform="translate(808 269)"><tspan x="0" y="0">5</tspan></text>
        <g id="Symbol_3_126" data-name="Symbol 3 – 126" transform="translate(314.423 -53)">
          <path id="Union_2" data-name="Union 2" d="M5.023,11l.732-3.932H5.423A2.712,2.712,0,1,1,4.657,5.1h.211a2.712,2.712,0,1,1,2.591,0h.211a2.712,2.712,0,1,1-.766,1.973H6.423L7.173,11Z" transform="translate(491.577 325.085)"/>
        </g>
      </g>
      <g id="Group_9" data-name="Group 9" transform="translate(1675.328 626.085) rotate(180)">
        <text id="_5-2" class="cls-2" transform="translate(807 269)"><tspan x="0" y="0">5</tspan></text>
        <g id="Symbol_3_127" data-name="Symbol 3 – 127" transform="translate(314.423 -53)">
          <path id="Union_2-2" data-name="Union 2" d="M5.023,11l.732-3.932H5.423A2.712,2.712,0,1,1,4.657,5.1h.211a2.712,2.712,0,1,1,2.591,0h.211a2.712,2.712,0,1,1-.766,1.973H6.423L7.173,11Z" transform="translate(491.577 325.085)"/>
        </g>
      </g>
    </g>
    <g id="Group_243" data-name="Group 243" transform="translate(211.053 3.931)">
      <path id="Union_15" data-name="Union 15" d="M7.305,16,8.37,10.281H7.888A3.945,3.945,0,1,1,6.774,7.412h.308a3.945,3.945,0,1,1,3.769,0h.308a3.945,3.945,0,1,1-1.114,2.869h-.7L10.433,16Z" transform="translate(342.947 885.069)"/>
      <path id="Union_16" data-name="Union 16" d="M7.305,16,8.37,10.281H7.888A3.945,3.945,0,1,1,6.774,7.412h.308a3.945,3.945,0,1,1,3.769,0h.308a3.945,3.945,0,1,1-1.114,2.869h-.7L10.433,16Z" transform="translate(366.947 885.069)"/>
      <path id="Union_17" data-name="Union 17" d="M7.305,16,8.37,10.281H7.888A3.945,3.945,0,1,1,6.774,7.412h.308a3.945,3.945,0,1,1,3.769,0h.308a3.945,3.945,0,1,1-1.114,2.869h-.7L10.433,16Z" transform="translate(366.947 924.069)"/>
      <path id="Union_18" data-name="Union 18" d="M7.305,16,8.37,10.281H7.888A3.945,3.945,0,1,1,6.774,7.412h.308a3.945,3.945,0,1,1,3.769,0h.308a3.945,3.945,0,1,1-1.114,2.869h-.7L10.433,16Z" transform="translate(342.947 924.069)"/>
      <path id="Union_19" data-name="Union 19" d="M7.305,16,8.37,10.281H7.888A3.945,3.945,0,1,1,6.774,7.412h.308a3.945,3.945,0,1,1,3.769,0h.308a3.945,3.945,0,1,1-1.114,2.869h-.7L10.433,16Z" transform="translate(353.947 904.069)"/>
    </g>
  </g>
</svg>
