<svg xmlns="http://www.w3.org/2000/svg" xmlns:xlink="http://www.w3.org/1999/xlink" viewBox="0 0 160 210">
  <defs>
    <style>
      .cls-1 {
        fill: #fff;
      }

      .cls-2, .cls-3 {
        fill: #d52a29;
      }

      .cls-2 {
        font-size: 14px;
        font-family: HelveticaNeue-Bold, Helvetica Neue;
        font-weight: 700;
      }

      .cls-4 {
        filter: url(#Rectangle_1);
      }
    </style>
    <filter id="Rectangle_1" x="0" y="0" width="160" height="210" filterUnits="userSpaceOnUse">
      <feOffset dx="3" dy="3" input="SourceAlpha"/>
      <feGaussianBlur stdDeviation="10" result="blur"/>
      <feFlood flood-opacity="0.102"/>
      <feComposite operator="in" in2="blur"/>
      <feComposite in="SourceGraphic"/>
    </filter>
  </defs>
  <g id="Group_303" data-name="Group 303" transform="translate(-1308 -532)">
    <g id="Group_210" data-name="Group 210" transform="translate(1078 315)">
      <g id="Symbol_5_274" data-name="Symbol 5 – 274" transform="translate(117)">
        <g class="cls-4" transform="matrix(1, 0, 0, 1, 113, 217)">
          <rect id="Rectangle_1-2" data-name="Rectangle 1" class="cls-1" width="100" height="150" rx="5" transform="translate(27 27)"/>
        </g>
      </g>
      <g id="Group_10" data-name="Group 10" transform="translate(2 -3)">
        <text id="_10" data-name="10" class="cls-2" transform="translate(260 263)"><tspan x="0" y="0">10</tspan></text>
        <g id="Symbol_2_123" data-name="Symbol 2 – 123" transform="translate(-177.159 -105)">
          <path id="Path_3" data-name="Path 3" class="cls-3" d="M-4.7-2.55l4.519-.473L4.351-3.5l-.981,9.02-9.019.98Z" transform="translate(443.626 377.699) rotate(-45)"/>
        </g>
      </g>
      <g id="Group_11" data-name="Group 11" transform="translate(612.142 641.291) rotate(180)">
        <text id="_10-2" data-name="10" class="cls-2" transform="translate(260 263)"><tspan x="0" y="0">10</tspan></text>
        <g id="Symbol_2_124" data-name="Symbol 2 – 124" transform="translate(-177.159 -105)">
          <path id="Path_3-2" data-name="Path 3" class="cls-3" d="M-4.7-2.55l4.519-.473L4.351-3.5l-.981,9.02-9.019.98Z" transform="translate(443.626 377.699) rotate(-45)"/>
        </g>
      </g>
    </g>
    <g id="Group_226" data-name="Group 226" transform="translate(988 -210.906)">
      <path id="Path_56" data-name="Path 56" class="cls-3" d="M-4.134-1.982,3.1-2.738,10.351-3.5,8.783,10.935-5.649,12.5Z" transform="translate(380.467 819.699) rotate(-45)"/>
      <path id="Path_58" data-name="Path 58" class="cls-3" d="M-4.134-1.982,3.1-2.738,10.351-3.5,8.783,10.935-5.649,12.5Z" transform="translate(380.467 843.699) rotate(-45)"/>
      <path id="Path_64" data-name="Path 64" class="cls-3" d="M-4.134-1.982,3.1-2.738,10.351-3.5,8.783,10.935-5.649,12.5Z" transform="translate(380.467 867.699) rotate(-45)"/>
      <path id="Path_65" data-name="Path 65" class="cls-3" d="M-4.134-1.982,3.1-2.738,10.351-3.5,8.783,10.935-5.649,12.5Z" transform="translate(380.467 891.699) rotate(-45)"/>
      <path id="Path_57" data-name="Path 57" class="cls-3" d="M-4.134-1.982,3.1-2.738,10.351-3.5,8.783,10.935-5.649,12.5Z" transform="translate(380.467 795.699) rotate(-45)"/>
    </g>
    <g id="Group_227" data-name="Group 227" transform="translate(1011 -210.906)">
      <path id="Path_56-2" data-name="Path 56" class="cls-3" d="M-4.134-1.982,3.1-2.738,10.351-3.5,8.783,10.935-5.649,12.5Z" transform="translate(380.467 819.699) rotate(-45)"/>
      <path id="Path_58-2" data-name="Path 58" class="cls-3" d="M-4.134-1.982,3.1-2.738,10.351-3.5,8.783,10.935-5.649,12.5Z" transform="translate(380.467 843.699) rotate(-45)"/>
      <path id="Path_62" data-name="Path 62" class="cls-3" d="M-4.134-1.982,3.1-2.738,10.351-3.5,8.783,10.935-5.649,12.5Z" transform="translate(380.467 867.699) rotate(-45)"/>
      <path id="Path_63" data-name="Path 63" class="cls-3" d="M-4.134-1.982,3.1-2.738,10.351-3.5,8.783,10.935-5.649,12.5Z" transform="translate(380.467 891.699) rotate(-45)"/>
      <path id="Path_57-2" data-name="Path 57" class="cls-3" d="M-4.134-1.982,3.1-2.738,10.351-3.5,8.783,10.935-5.649,12.5Z" transform="translate(380.467 795.699) rotate(-45)"/>
    </g>
  </g>
</svg>
