<svg xmlns="http://www.w3.org/2000/svg" xmlns:xlink="http://www.w3.org/1999/xlink" viewBox="0 0 100 150">
  <defs>
    <style>
      .cls-1 {
        fill: #fff;
      }

      .cls-2, .cls-3 {
        fill: #d52a29;
      }

      .cls-2 {
        font-size: 14px;
        font-family: HelveticaNeue-Bold, Helvetica Neue;
        font-weight: 700;
      }

      .cls-4 {
        filter: url(#Rectangle_1);
      }
    </style>
    <filter id="Rectangle_1" x="0" y="0" width="100" height="150" filterUnits="userSpaceOnUse">
      <feOffset dx="3" dy="3" input="SourceAlpha"/>
      <feGaussianBlur stdDeviation="10" result="blur"/>
      <feFlood flood-opacity="0.102"/>
      <feComposite operator="in" in2="blur"/>
      <feComposite in="SourceGraphic"/>
    </filter>
  </defs>
  <g id="Group_312" data-name="Group 312" transform="translate(-46 -481)">
    <g id="Group_213" data-name="Group 213" transform="translate(-184 264)">
      <g id="Symbol_5_258" data-name="Symbol 5 – 258" transform="translate(117)">
        <g class="cls-4" transform="matrix(1, 0, 0, 1, 113, 217)">
          <rect id="Rectangle_1-2" data-name="Rectangle 1" class="cls-1" width="100" height="150" rx="5" />
        </g>
      </g>
      <g id="Group_10" data-name="Group 10" transform="translate(-25 -30)">
        <text id="A" class="cls-2" transform="translate(262 263)"><tspan x="0" y="0">A</tspan></text>
        <path id="Path_3" data-name="Path 3" class="cls-3" d="M-4.7-2.55l4.519-.473L4.351-3.5l-.981,9.02-9.019.98Z" transform="translate(266.467 272.699) rotate(-45)"/>
      </g>
      <g id="Group_11" data-name="Group 11" transform="translate(585.142 614.291) rotate(180)">
        <text id="A-2" data-name="A" class="cls-2" transform="translate(261 263)"><tspan x="0" y="0">A</tspan></text>
        <g id="Symbol_2_116" data-name="Symbol 2 – 116" transform="translate(-177.159 -105)">
          <path id="Path_3-2" data-name="Path 3" class="cls-3" d="M-4.7-2.55l4.519-.473L4.351-3.5l-.981,9.02-9.019.98Z" transform="translate(443.626 377.699) rotate(-45)"/>
        </g>
      </g>
    </g>
    <path id="Path_53" data-name="Path 53" class="cls-3" d="M.17,2.325,27.958-.581,55.839-3.5,49.81,51.965-5.649,57.991Z" transform="translate(59.467 554.957) rotate(-45)"/>
  </g>
</svg>
