<svg xmlns="http://www.w3.org/2000/svg" xmlns:xlink="http://www.w3.org/1999/xlink" viewBox="0 0 160 210">
  <defs>
    <style>
      .cls-1 {
        fill: #fff;
      }

      .cls-2, .cls-3 {
        fill: #d52a29;
      }

      .cls-3 {
        font-size: 14px;
        font-family: HelveticaNeue-Bold, Helvetica Neue;
        font-weight: 700;
      }

      .cls-4 {
        fill: #003a5f;
      }

      .cls-5 {
        fill: #1d2537;
      }

      .cls-6 {
        fill: #ffd9c6;
      }

      .cls-13, .cls-7 {
        fill: none;
      }

      .cls-7 {
        stroke: #1d2537;
      }

      .cls-8 {
        fill: #fccdb6;
      }

      .cls-9 {
        fill: #e8b094;
      }

      .cls-10 {
        fill: #d50000;
      }

      .cls-11 {
        fill: #0031d5;
      }

      .cls-12 {
        stroke: none;
      }

      .cls-14 {
        filter: url(#Rectangle_1);
      }
    </style>
    <filter id="Rectangle_1" x="0" y="0" width="160" height="210" filterUnits="userSpaceOnUse">
      <feOffset dx="3" dy="3" input="SourceAlpha"/>
      <feGaussianBlur stdDeviation="10" result="blur"/>
      <feFlood flood-opacity="0.102"/>
      <feComposite operator="in" in2="blur"/>
      <feComposite in="SourceGraphic"/>
    </filter>
  </defs>
  <g id="Group_278" data-name="Group 278" transform="translate(-1578 -287)">
    <g id="Group_270" data-name="Group 270">
      <g id="Group_21" data-name="Group 21" transform="translate(1465 70)">
        <g id="Symbol_5_295" data-name="Symbol 5 – 295">
          <g class="cls-14" transform="matrix(1, 0, 0, 1, 113, 217)">
            <rect id="Rectangle_1-2" data-name="Rectangle 1" class="cls-1" width="100" height="150" rx="5" transform="translate(27 27)"/>
          </g>
        </g>
        <g id="Group_1" data-name="Group 1" transform="translate(0 -3)">
          <g id="Symbol_1_162" data-name="Symbol 1 – 162" transform="translate(-235.479 -95.719)">
            <path id="Union_5" data-name="Union 5" class="cls-2" d="M5.779,9.252a2.825,2.825,0,0,1-2.765,2.529A2.9,2.9,0,0,1,.006,8.89a4.824,4.824,0,0,1,.329-2.2,6.982,6.982,0,0,1,1.122-1.9c.362-.408.831-.984,1.322-1.528C3.571,2.382,5.664,0,5.791,0h0a.005.005,0,0,1,0,.005c.125.14,2.193,2.459,2.992,3.346.491.545.96,1.12,1.322,1.528a6.985,6.985,0,0,1,1.122,1.9,4.824,4.824,0,0,1,.329,2.2,2.9,2.9,0,0,1-3.007,2.891A2.829,2.829,0,0,1,5.779,9.252Z" transform="translate(392.047 374.591) rotate(180)"/>
          </g>
          <text id="K" class="cls-3" transform="translate(146 263)"><tspan x="0" y="0">K</tspan></text>
        </g>
      </g>
      <g id="Group_2" data-name="Group 2" transform="translate(1844.568 710.872) rotate(180)">
        <g id="Symbol_1_163" data-name="Symbol 1 – 163" transform="translate(-235.479 -95.719)">
          <path id="Union_5-2" data-name="Union 5" class="cls-2" d="M5.779,9.252a2.825,2.825,0,0,1-2.765,2.529A2.9,2.9,0,0,1,.006,8.89a4.824,4.824,0,0,1,.329-2.2,6.982,6.982,0,0,1,1.122-1.9c.362-.408.831-.984,1.322-1.528C3.571,2.382,5.664,0,5.791,0h0a.005.005,0,0,1,0,.005c.125.14,2.193,2.459,2.992,3.346.491.545.96,1.12,1.322,1.528a6.985,6.985,0,0,1,1.122,1.9,4.824,4.824,0,0,1,.329,2.2,2.9,2.9,0,0,1-3.007,2.891A2.829,2.829,0,0,1,5.779,9.252Z" transform="translate(392.047 374.591) rotate(180)"/>
        </g>
        <text id="K-2" data-name="K" class="cls-3" transform="translate(147 263)"><tspan x="0" y="0">K</tspan></text>
      </g>
    </g>
    <g id="Group_277" data-name="Group 277" transform="translate(1490 240.686)">
      <g id="Group_81" data-name="Group 81" transform="translate(18.379 -7)">
        <path id="Path_34" data-name="Path 34" class="cls-4" d="M49.188,7.889c0,10.518-11.011,19.045-24.594,19.045S0,18.407,0,7.889,49.188-2.63,49.188,7.889Z" transform="translate(184.744 154) rotate(180)"/>
        <path id="Path_35" data-name="Path 35" class="cls-1" d="M20.105,77.3c0,10.518-4.5,19.045-10.053,19.045S0,87.823,0,77.3,20.105,66.786,20.105,77.3Z" transform="translate(150.518 57.65)"/>
        <path id="Path_19" data-name="Path 19" class="cls-5" d="M49.188,11.748c0,15.664-11.011,28.363-24.594,28.363S0,27.413,0,11.748,49.188-3.916,49.188,11.748Z" transform="translate(183.809 130.248) rotate(180)"/>
        <rect id="Rectangle_7" data-name="Rectangle 7" class="cls-6" width="29.808" height="43.577" rx="14.904" transform="translate(145.472 90.224)"/>
        <ellipse id="Ellipse_6" data-name="Ellipse 6" class="cls-6" cx="3.071" cy="3.834" rx="3.071" ry="3.834" transform="translate(142.476 107.057)"/>
        <circle id="Ellipse_7" data-name="Ellipse 7" class="cls-6" cx="3.834" cy="3.834" r="3.834" transform="translate(171.54 107.057)"/>
        <path id="Path_21" data-name="Path 21" class="cls-5" d="M29.936,2.223c0,3.971-9.354,10.84-15.62,10.84S0,8,0,4.033,29.936-1.748,29.936,2.223Z" transform="matrix(-0.946, 0.326, -0.326, -0.946, 172.35, 98.666)"/>
        <g id="Group_70" data-name="Group 70" transform="translate(151.079 106.225)">
          <g id="Ellipse_13" data-name="Ellipse 13" class="cls-7" transform="translate(0 3.263)">
            <circle class="cls-12" cx="3.928" cy="3.928" r="3.928"/>
            <circle class="cls-13" cx="3.928" cy="3.928" r="3.428"/>
          </g>
          <rect id="Rectangle_17" data-name="Rectangle 17" class="cls-5" width="6.92" height="1.683" rx="0.842" transform="translate(0.411 0) rotate(11)"/>
          <circle id="Ellipse_14" data-name="Ellipse 14" class="cls-5" cx="1.216" cy="1.216" r="1.216" transform="translate(2.805 5.32)"/>
        </g>
        <g id="Group_71" data-name="Group 71" transform="translate(158.373 106.281)">
          <g id="Ellipse_13-2" data-name="Ellipse 13" class="cls-7" transform="translate(4.302 3.206)">
            <circle class="cls-12" cx="3.928" cy="3.928" r="3.928"/>
            <circle class="cls-13" cx="3.928" cy="3.928" r="3.428"/>
          </g>
          <rect id="Rectangle_17-2" data-name="Rectangle 17" class="cls-5" width="6.92" height="1.683" rx="0.842" transform="translate(4.769 1.202) rotate(-10)"/>
          <rect id="Rectangle_28" data-name="Rectangle 28" class="cls-5" width="5.05" height="1.309" rx="0.655" transform="translate(0 6.573)"/>
          <circle id="Ellipse_14-2" data-name="Ellipse 14" class="cls-5" cx="1.216" cy="1.216" r="1.216" transform="translate(7.107 5.264)"/>
        </g>
        <rect id="Rectangle_26" data-name="Rectangle 26" class="cls-5" width="6.359" height="1.122" rx="0.561" transform="matrix(0.951, 0.309, -0.309, 0.951, 145.985, 110.777)"/>
        <rect id="Rectangle_27" data-name="Rectangle 27" class="cls-5" width="5.424" height="1.122" rx="0.561" transform="translate(169.934 112.646) rotate(-19)"/>
        <g id="Group_74" data-name="Group 74" transform="translate(157.625 114.631)">
          <rect id="Rectangle_18" data-name="Rectangle 18" class="cls-8" width="6.359" height="3.366" rx="1.683" transform="translate(0 2.992)"/>
          <rect id="Rectangle_33" data-name="Rectangle 33" class="cls-8" width="4.115" height="4.489" rx="2.057" transform="translate(1.122 0)"/>
          <rect id="Rectangle_31" data-name="Rectangle 31" class="cls-9" width="1.313" height="1.313" rx="0.656" transform="translate(3.831 4.485)"/>
          <rect id="Rectangle_32" data-name="Rectangle 32" class="cls-9" width="1.313" height="1.313" rx="0.656" transform="translate(1.533 4.485)"/>
        </g>
      </g>
      <g id="Group_82" data-name="Group 82" transform="translate(311.744 303.314) rotate(180)">
        <path id="Path_34-2" data-name="Path 34" class="cls-4" d="M49.188,7.889c0,10.518-11.011,19.045-24.594,19.045S0,18.407,0,7.889,49.188-2.63,49.188,7.889Z" transform="translate(184.744 154) rotate(180)"/>
        <path id="Path_35-2" data-name="Path 35" class="cls-1" d="M20.105,77.3c0,10.518-4.5,19.045-10.053,19.045S0,87.823,0,77.3,20.105,66.786,20.105,77.3Z" transform="translate(150.518 57.65)"/>
        <path id="Path_19-2" data-name="Path 19" class="cls-5" d="M49.188,11.748c0,15.664-11.011,28.363-24.594,28.363S0,27.413,0,11.748,49.188-3.916,49.188,11.748Z" transform="translate(183.809 130.248) rotate(180)"/>
        <rect id="Rectangle_7-2" data-name="Rectangle 7" class="cls-6" width="29.808" height="43.577" rx="14.904" transform="translate(145.472 90.224)"/>
        <ellipse id="Ellipse_6-2" data-name="Ellipse 6" class="cls-6" cx="3.071" cy="3.834" rx="3.071" ry="3.834" transform="translate(142.476 107.057)"/>
        <circle id="Ellipse_7-2" data-name="Ellipse 7" class="cls-6" cx="3.834" cy="3.834" r="3.834" transform="translate(171.54 107.057)"/>
        <path id="Path_21-2" data-name="Path 21" class="cls-5" d="M29.936,2.223c0,3.971-9.354,10.84-15.62,10.84S0,8,0,4.033,29.936-1.748,29.936,2.223Z" transform="matrix(-0.946, 0.326, -0.326, -0.946, 172.35, 98.666)"/>
        <g id="Group_70-2" data-name="Group 70" transform="translate(151.079 106.225)">
          <g id="Ellipse_13-3" data-name="Ellipse 13" class="cls-7" transform="translate(0 3.263)">
            <circle class="cls-12" cx="3.928" cy="3.928" r="3.928"/>
            <circle class="cls-13" cx="3.928" cy="3.928" r="3.428"/>
          </g>
          <rect id="Rectangle_17-3" data-name="Rectangle 17" class="cls-5" width="6.92" height="1.683" rx="0.842" transform="translate(0.411 0) rotate(11)"/>
          <circle id="Ellipse_14-3" data-name="Ellipse 14" class="cls-5" cx="1.216" cy="1.216" r="1.216" transform="translate(2.805 5.32)"/>
        </g>
        <g id="Group_71-2" data-name="Group 71" transform="translate(158.373 106.281)">
          <g id="Ellipse_13-4" data-name="Ellipse 13" class="cls-7" transform="translate(4.302 3.206)">
            <circle class="cls-12" cx="3.928" cy="3.928" r="3.928"/>
            <circle class="cls-13" cx="3.928" cy="3.928" r="3.428"/>
          </g>
          <rect id="Rectangle_17-4" data-name="Rectangle 17" class="cls-5" width="6.92" height="1.683" rx="0.842" transform="translate(4.769 1.202) rotate(-10)"/>
          <rect id="Rectangle_28-2" data-name="Rectangle 28" class="cls-5" width="5.05" height="1.309" rx="0.655" transform="translate(0 6.573)"/>
          <circle id="Ellipse_14-4" data-name="Ellipse 14" class="cls-5" cx="1.216" cy="1.216" r="1.216" transform="translate(7.107 5.264)"/>
        </g>
        <rect id="Rectangle_26-2" data-name="Rectangle 26" class="cls-5" width="6.359" height="1.122" rx="0.561" transform="matrix(0.951, 0.309, -0.309, 0.951, 145.985, 110.777)"/>
        <rect id="Rectangle_27-2" data-name="Rectangle 27" class="cls-5" width="5.424" height="1.122" rx="0.561" transform="translate(169.934 112.646) rotate(-19)"/>
        <g id="Group_74-2" data-name="Group 74" transform="translate(157.625 114.631)">
          <rect id="Rectangle_18-2" data-name="Rectangle 18" class="cls-8" width="6.359" height="3.366" rx="1.683" transform="translate(0 2.992)"/>
          <rect id="Rectangle_33-2" data-name="Rectangle 33" class="cls-8" width="4.115" height="4.489" rx="2.057" transform="translate(1.122 0)"/>
          <rect id="Rectangle_31-2" data-name="Rectangle 31" class="cls-9" width="1.313" height="1.313" rx="0.656" transform="translate(3.831 4.485)"/>
          <rect id="Rectangle_32-2" data-name="Rectangle 32" class="cls-9" width="1.313" height="1.313" rx="0.656" transform="translate(1.533 4.485)"/>
        </g>
      </g>
      <g id="Group_88" data-name="Group 88" transform="translate(6.06 4.219)">
        <path id="Path_42" data-name="Path 42" class="cls-10" d="M2,0H52.06a2.03,2.03,0,0,1,2,2.059V32.728a2.03,2.03,0,0,1-2,2.059H2a2.03,2.03,0,0,1-2-2.059V2.059A2.03,2.03,0,0,1,2,0Z" transform="translate(131.94 125.781)"/>
        <rect id="Rectangle_35" data-name="Rectangle 35" class="cls-11" width="25.607" height="19.494" rx="2" transform="translate(131.94 125.781)"/>
        <circle id="Ellipse_21" data-name="Ellipse 21" class="cls-1" cx="4.979" cy="4.979" r="4.979" transform="translate(139.765 130.693)"/>
        <circle id="Ellipse_23" data-name="Ellipse 23" class="cls-1" cx="1.245" cy="1.245" r="1.245" transform="translate(150.079 132.827)"/>
        <circle id="Ellipse_24" data-name="Ellipse 24" class="cls-1" cx="1.245" cy="1.245" r="1.245" transform="translate(150.079 136.74)"/>
        <circle id="Ellipse_25" data-name="Ellipse 25" class="cls-1" cx="1.245" cy="1.245" r="1.245" transform="translate(148.3 139.941)"/>
        <circle id="Ellipse_26" data-name="Ellipse 26" class="cls-1" cx="1.245" cy="1.245" r="1.245" transform="translate(143.677 141.363)"/>
        <circle id="Ellipse_22" data-name="Ellipse 22" class="cls-1" cx="1.245" cy="1.245" r="1.245" transform="translate(141.899 142.786) rotate(180)"/>
        <circle id="Ellipse_23-2" data-name="Ellipse 23" class="cls-1" cx="1.245" cy="1.245" r="1.245" transform="translate(139.409 139.229) rotate(180)"/>
        <circle id="Ellipse_24-2" data-name="Ellipse 24" class="cls-1" cx="1.245" cy="1.245" r="1.245" transform="translate(139.409 135.317) rotate(180)"/>
        <circle id="Ellipse_27" data-name="Ellipse 27" class="cls-1" cx="1.245" cy="1.245" r="1.245" transform="translate(143.617 127.274)"/>
        <circle id="Ellipse_22-2" data-name="Ellipse 22" class="cls-1" cx="1.245" cy="1.245" r="1.245" transform="translate(148.241 128.696)"/>
        <circle id="Ellipse_25-2" data-name="Ellipse 25" class="cls-1" cx="1.245" cy="1.245" r="1.245" transform="translate(142.127 131.186) rotate(180)"/>
      </g>
    </g>
  </g>
</svg>
