<svg xmlns="http://www.w3.org/2000/svg" xmlns:xlink="http://www.w3.org/1999/xlink" viewBox="0 0 100 150">
  <defs>
    <style>
      .cls-1 {
        fill: #fff;
      }

      .cls-2, .cls-3 {
        fill: #d52a29;
      }

      .cls-3 {
        font-size: 14px;
        font-family: HelveticaNeue-Bold, Helvetica Neue;
        font-weight: 700;
      }

      .cls-4 {
        filter: url(#Rectangle_1);
      }
    </style>
    <filter id="Rectangle_1" x="0" y="0" width="100" height="150" filterUnits="userSpaceOnUse">
      <feOffset dx="3" dy="3" input="SourceAlpha"/>
      <feGaussianBlur stdDeviation="10" result="blur"/>
      <feFlood flood-opacity="0.102"/>
      <feComposite operator="in" in2="blur"/>
      <feComposite in="SourceGraphic"/>
    </filter>
  </defs>
  <g id="Group_171" data-name="Group 171" transform="translate(-147 -476)">
    <g id="Group_158" data-name="Group 158" transform="translate(34 259)">
      <g id="Symbol_5_305" data-name="Symbol 5 – 305">
        <g class="cls-4" transform="matrix(1, 0, 0, 1, 113, 217)">
          <rect id="Rectangle_1-2" data-name="Rectangle 1" class="cls-1" width="100" height="150" rx="5" />
        </g>
      </g>
      <g id="Group_1" data-name="Group 1" transform="translate(-27 -30)">
        <g id="Symbol_1_168" data-name="Symbol 1 – 168" transform="translate(-235.479 -95.719)">
          <path id="Union_5" data-name="Union 5" class="cls-2" d="M5.779,9.252a2.825,2.825,0,0,1-2.765,2.529A2.9,2.9,0,0,1,.006,8.89a4.824,4.824,0,0,1,.329-2.2,6.982,6.982,0,0,1,1.122-1.9c.362-.408.831-.984,1.322-1.528C3.571,2.382,5.664,0,5.791,0h0a.005.005,0,0,1,0,.005c.125.14,2.193,2.459,2.992,3.346.491.545.96,1.12,1.322,1.528a6.985,6.985,0,0,1,1.122,1.9,4.824,4.824,0,0,1,.329,2.2,2.9,2.9,0,0,1-3.007,2.891A2.829,2.829,0,0,1,5.779,9.252Z" transform="translate(392.047 374.591) rotate(180)"/>
        </g>
        <text id="_2" data-name="2" class="cls-3" transform="translate(147 263)"><tspan x="0" y="0">2</tspan></text>
      </g>
      <g id="Group_2" data-name="Group 2" transform="translate(352.568 615.872) rotate(180)">
        <g id="Symbol_1_169" data-name="Symbol 1 – 169" transform="translate(-235.479 -95.719)">
          <path id="Union_5-2" data-name="Union 5" class="cls-2" d="M5.779,9.252a2.825,2.825,0,0,1-2.765,2.529A2.9,2.9,0,0,1,.006,8.89a4.824,4.824,0,0,1,.329-2.2,6.982,6.982,0,0,1,1.122-1.9c.362-.408.831-.984,1.322-1.528C3.571,2.382,5.664,0,5.791,0h0a.005.005,0,0,1,0,.005c.125.14,2.193,2.459,2.992,3.346.491.545.96,1.12,1.322,1.528a6.985,6.985,0,0,1,1.122,1.9,4.824,4.824,0,0,1,.329,2.2,2.9,2.9,0,0,1-3.007,2.891A2.829,2.829,0,0,1,5.779,9.252Z" transform="translate(392.047 374.591) rotate(180)"/>
        </g>
        <text id="_2-2" data-name="2" class="cls-3" transform="translate(147 263)"><tspan x="0" y="0">2</tspan></text>
      </g>
    </g>
    <g id="Group_169" data-name="Group 169" transform="translate(-27.432 -27.732)">
      <path id="Union_9" data-name="Union 9" class="cls-2" d="M11.49,18.395a5.617,5.617,0,0,1-5.5,5.027A5.755,5.755,0,0,1,.013,17.675a9.591,9.591,0,0,1,.654-4.369A13.881,13.881,0,0,1,2.9,9.523c.72-.812,1.652-1.956,2.628-3.038C7.1,4.737,11.262,0,11.513,0V0l0,0a.011.011,0,0,1,.01.011c.248.278,4.36,4.89,5.95,6.653C18.45,7.749,19.382,8.893,20.1,9.7a13.888,13.888,0,0,1,2.231,3.783,9.591,9.591,0,0,1,.653,4.369A5.755,5.755,0,0,1,17.007,23.6,5.624,5.624,0,0,1,11.49,18.395Z" transform="translate(235.568 576.872) rotate(180)"/>
      <path id="Union_10" data-name="Union 10" class="cls-2" d="M11.49,18.395a5.617,5.617,0,0,1-5.5,5.027A5.755,5.755,0,0,1,.013,17.675a9.591,9.591,0,0,1,.654-4.369A13.881,13.881,0,0,1,2.9,9.523c.72-.812,1.652-1.956,2.628-3.038C7.1,4.737,11.262,0,11.513,0V0l0,0a.011.011,0,0,1,.01.011c.248.278,4.36,4.89,5.95,6.653C18.45,7.749,19.382,8.893,20.1,9.7a13.888,13.888,0,0,1,2.231,3.783,9.591,9.591,0,0,1,.653,4.369A5.755,5.755,0,0,1,17.007,23.6,5.624,5.624,0,0,1,11.49,18.395Z" transform="translate(212.568 579.268)"/>
    </g>
  </g>
</svg>
