<svg xmlns="http://www.w3.org/2000/svg" xmlns:xlink="http://www.w3.org/1999/xlink" viewBox="0 0 100 150">
  <defs>
    <style>
      .cls-1 {
        fill: #fff;
      }

      .cls-2 {
        font-size: 14px;
        font-family: HelveticaNeue-Bold, Helvetica Neue;
        font-weight: 700;
      }

      .cls-3 {
        filter: url(#Rectangle_1);
      }
    </style>
    <filter id="Rectangle_1" x="0" y="0" width="100" height="150" filterUnits="userSpaceOnUse">
      <feOffset dx="3" dy="3" input="SourceAlpha"/>
      <feGaussianBlur stdDeviation="10" result="blur"/>
      <feFlood flood-opacity="0.102"/>
      <feComposite operator="in" in2="blur"/>
      <feComposite in="SourceGraphic"/>
    </filter>
  </defs>
  <g id="Group_141" data-name="Group 141" transform="translate(-581 -271)">
    <g id="Group_110" data-name="Group 110" transform="translate(-26 48)">
      <g id="Group_7" data-name="Group 7">
        <g id="Symbol_5_264" data-name="Symbol 5 – 264" transform="translate(494 6)">
          <g class="cls-3" transform="matrix(1, 0, 0, 1, 113, 217)">
            <rect id="Rectangle_1-2" data-name="Rectangle 1" class="cls-1" width="100" height="150" rx="5" />
          </g>
        </g>
        <g id="Group_5" data-name="Group 5" transform="translate(-27 -30)">
          <text id="_6" data-name="6" class="cls-2" transform="translate(641 269)"><tspan x="0" y="0">6</tspan></text>
          <g id="Symbol_4_125" data-name="Symbol 4 – 125" transform="translate(116.711 -90)">
            <path id="Union_4" data-name="Union 4" d="M4.311,13.067l.521-2.8a2.6,2.6,0,0,1-1.966.906A2.752,2.752,0,0,1,.006,8.426a4.587,4.587,0,0,1,.313-2.09A6.639,6.639,0,0,1,1.386,4.527c.344-.388.79-.935,1.257-1.453.753-.836,2.744-3.1,2.863-3.1h0a.005.005,0,0,1,0,.005C5.63.112,7.6,2.318,8.357,3.161c.467.518.913,1.065,1.257,1.453a6.642,6.642,0,0,1,1.067,1.809,4.587,4.587,0,0,1,.312,2.09,2.752,2.752,0,0,1-2.86,2.749,2.612,2.612,0,0,1-2.083-1.05l.544,2.854ZM5.5,8.8l0-.033,0,.033Z" transform="translate(522.289 363.332)"/>
          </g>
        </g>
        <g id="Group_6" data-name="Group 6" transform="translate(1341 626.399) rotate(180)">
          <text id="_6-2" data-name="6" class="cls-2" transform="translate(641 269)"><tspan x="0" y="0">6</tspan></text>
          <g id="Symbol_4_126" data-name="Symbol 4 – 126" transform="translate(116.711 -90)">
            <path id="Union_4-2" data-name="Union 4" d="M4.311,13.067l.521-2.8a2.6,2.6,0,0,1-1.966.906A2.752,2.752,0,0,1,.006,8.426a4.587,4.587,0,0,1,.313-2.09A6.639,6.639,0,0,1,1.386,4.527c.344-.388.79-.935,1.257-1.453.753-.836,2.744-3.1,2.863-3.1h0a.005.005,0,0,1,0,.005C5.63.112,7.6,2.318,8.357,3.161c.467.518.913,1.065,1.257,1.453a6.642,6.642,0,0,1,1.067,1.809,4.587,4.587,0,0,1,.312,2.09,2.752,2.752,0,0,1-2.86,2.749,2.612,2.612,0,0,1-2.083-1.05l.544,2.854ZM5.5,8.8l0-.033,0,.033Z" transform="translate(522.289 363.332)"/>
          </g>
        </g>
      </g>
    </g>
    <g id="Group_117" data-name="Group 117" transform="translate(427.763 7.685)">
      <g id="Group_100" data-name="Group 100" transform="translate(185.237 329)">
        <path id="Path_39" data-name="Path 39" d="M3.882,0A3.8,3.8,0,0,0,.157,3.864C.157,6-.2,13.376.163,15.73.11,16.008,3.094,12.61,4.2,11.388c.656-.728,1.283-1.5,1.767-2.043A9.333,9.333,0,0,0,7.463,6.8,6.449,6.449,0,0,0,7.9,3.864,3.869,3.869,0,0,0,3.882,0Z" transform="translate(7.911 15.747) rotate(180)"/>
        <path id="Path_40" data-name="Path 40" d="M4.029,0A3.8,3.8,0,0,1,7.754,3.864C7.754,6,7.723,15.87,7.723,15.87s-2.906-3.259-4.008-4.482c-.656-.728-1.283-1.5-1.767-2.043A9.333,9.333,0,0,1,.448,6.8,6.449,6.449,0,0,1,.009,3.864,3.869,3.869,0,0,1,4.029,0Z" transform="translate(15.463 15.87) rotate(180)"/>
        <path id="Path_41" data-name="Path 41" d="M605.67,291.5l-1.116,5.994h3.21l-1.143-5.994Z" transform="translate(-598.494 -279.087)"/>
      </g>
      <g id="Group_118" data-name="Group 118" transform="translate(185.237 349)">
        <path id="Path_39-2" data-name="Path 39" d="M3.882,0A3.8,3.8,0,0,0,.157,3.864C.157,6-.2,13.376.163,15.73.11,16.008,3.094,12.61,4.2,11.388c.656-.728,1.283-1.5,1.767-2.043A9.333,9.333,0,0,0,7.463,6.8,6.449,6.449,0,0,0,7.9,3.864,3.869,3.869,0,0,0,3.882,0Z" transform="translate(7.911 15.747) rotate(180)"/>
        <path id="Path_40-2" data-name="Path 40" d="M4.029,0A3.8,3.8,0,0,1,7.754,3.864C7.754,6,7.723,15.87,7.723,15.87s-2.906-3.259-4.008-4.482c-.656-.728-1.283-1.5-1.767-2.043A9.333,9.333,0,0,1,.448,6.8,6.449,6.449,0,0,1,.009,3.864,3.869,3.869,0,0,1,4.029,0Z" transform="translate(15.463 15.87) rotate(180)"/>
        <path id="Path_41-2" data-name="Path 41" d="M605.67,291.5l-1.116,5.994h3.21l-1.143-5.994Z" transform="translate(-598.494 -279.087)"/>
      </g>
      <g id="Group_105" data-name="Group 105" transform="translate(185.237 309)">
        <path id="Path_39-3" data-name="Path 39" d="M3.882,0A3.8,3.8,0,0,0,.157,3.864C.157,6-.2,13.376.163,15.73.11,16.008,3.094,12.61,4.2,11.388c.656-.728,1.283-1.5,1.767-2.043A9.333,9.333,0,0,0,7.463,6.8,6.449,6.449,0,0,0,7.9,3.864,3.869,3.869,0,0,0,3.882,0Z" transform="translate(7.911 15.747) rotate(180)"/>
        <path id="Path_40-3" data-name="Path 40" d="M4.029,0A3.8,3.8,0,0,1,7.754,3.864C7.754,6,7.723,15.87,7.723,15.87s-2.906-3.259-4.008-4.482c-.656-.728-1.283-1.5-1.767-2.043A9.333,9.333,0,0,1,.448,6.8,6.449,6.449,0,0,1,.009,3.864,3.869,3.869,0,0,1,4.029,0Z" transform="translate(15.463 15.87) rotate(180)"/>
        <path id="Path_41-3" data-name="Path 41" d="M605.67,291.5l-1.116,5.994h3.21l-1.143-5.994Z" transform="translate(-598.494 -279.087)"/>
      </g>
      <g id="Group_101" data-name="Group 101" transform="translate(206.237 308.315)">
        <path id="Path_39-4" data-name="Path 39" d="M3.882,0A3.8,3.8,0,0,0,.157,3.864C.157,6-.2,13.376.163,15.73.11,16.008,3.094,12.61,4.2,11.388c.656-.728,1.283-1.5,1.767-2.043A9.333,9.333,0,0,0,7.463,6.8,6.449,6.449,0,0,0,7.9,3.864,3.869,3.869,0,0,0,3.882,0Z" transform="translate(7.911 15.747) rotate(180)"/>
        <path id="Path_40-4" data-name="Path 40" d="M4.029,0A3.8,3.8,0,0,1,7.754,3.864C7.754,6,7.723,15.87,7.723,15.87s-2.906-3.259-4.008-4.482c-.656-.728-1.283-1.5-1.767-2.043A9.333,9.333,0,0,1,.448,6.8,6.449,6.449,0,0,1,.009,3.864,3.869,3.869,0,0,1,4.029,0Z" transform="translate(15.463 15.87) rotate(180)"/>
        <path id="Path_41-4" data-name="Path 41" d="M1.116,0,0,5.994H3.21L2.067,0Z" transform="translate(6.061 12.413)"/>
      </g>
      <g id="Group_108" data-name="Group 108" transform="translate(206.237 328.315)">
        <path id="Path_39-5" data-name="Path 39" d="M3.882,0A3.8,3.8,0,0,0,.157,3.864C.157,6-.2,13.376.163,15.73.11,16.008,3.094,12.61,4.2,11.388c.656-.728,1.283-1.5,1.767-2.043A9.333,9.333,0,0,0,7.463,6.8,6.449,6.449,0,0,0,7.9,3.864,3.869,3.869,0,0,0,3.882,0Z" transform="translate(7.911 15.747) rotate(180)"/>
        <path id="Path_40-5" data-name="Path 40" d="M4.029,0A3.8,3.8,0,0,1,7.754,3.864C7.754,6,7.723,15.87,7.723,15.87s-2.906-3.259-4.008-4.482c-.656-.728-1.283-1.5-1.767-2.043A9.333,9.333,0,0,1,.448,6.8,6.449,6.449,0,0,1,.009,3.864,3.869,3.869,0,0,1,4.029,0Z" transform="translate(15.463 15.87) rotate(180)"/>
        <path id="Path_41-5" data-name="Path 41" d="M1.116,0,0,5.994H3.21L2.067,0Z" transform="translate(6.061 12.413)"/>
      </g>
      <g id="Group_119" data-name="Group 119" transform="translate(206.237 348.315)">
        <path id="Path_39-6" data-name="Path 39" d="M3.882,0A3.8,3.8,0,0,0,.157,3.864C.157,6-.2,13.376.163,15.73.11,16.008,3.094,12.61,4.2,11.388c.656-.728,1.283-1.5,1.767-2.043A9.333,9.333,0,0,0,7.463,6.8,6.449,6.449,0,0,0,7.9,3.864,3.869,3.869,0,0,0,3.882,0Z" transform="translate(7.911 15.747) rotate(180)"/>
        <path id="Path_40-6" data-name="Path 40" d="M4.029,0A3.8,3.8,0,0,1,7.754,3.864C7.754,6,7.723,15.87,7.723,15.87s-2.906-3.259-4.008-4.482c-.656-.728-1.283-1.5-1.767-2.043A9.333,9.333,0,0,1,.448,6.8,6.449,6.449,0,0,1,.009,3.864,3.869,3.869,0,0,1,4.029,0Z" transform="translate(15.463 15.87) rotate(180)"/>
        <path id="Path_41-6" data-name="Path 41" d="M1.116,0,0,5.994H3.21L2.067,0Z" transform="translate(6.061 12.413)"/>
      </g>
    </g>
  </g>
</svg>
