<svg xmlns="http://www.w3.org/2000/svg" xmlns:xlink="http://www.w3.org/1999/xlink" viewBox="0 0 160 210">
  <g transform="translate(-26 -476)">
    <path d="M36.509,58.447A17.846,17.846,0,0,1,19.041,74.421c-9.723,0-18.522-6.445-19-18.261,0-2.453-.517-8.376,2.077-13.882C3,40.406,5,35,9.206,30.257c2.287-2.579,5.25-6.215,8.351-9.654C22.563,15.05,35.784,0,36.581.007c0,0,0-.007,0-.007l.007.008a.034.034,0,0,1,.03.034c.787.882,13.853,15.536,18.9,21.139,3.1,3.44,6.064,7.075,8.351,9.655,4.208,4.743,6.207,10.149,7.089,12.021,2.593,5.506,2.075,11.429,2.075,13.883C72.561,68.554,63.761,75,54.039,75,44.87,75,37.339,67.731,36.509,58.447Z" transform="translate(139.08 616) rotate(180)"/>
  </g>
</svg>
