<svg xmlns="http://www.w3.org/2000/svg" xmlns:xlink="http://www.w3.org/1999/xlink" viewBox="0 0 160 210">
  <g transform="translate(-14 -271)">
    <path d="M27.435,83.3l3.313-17.8a16.558,16.558,0,0,1-12.511,5.763C8.925,71.258.5,65.084.04,53.766c0-2.35-.5-8.023,1.989-13.3.844-1.793,2.758-6.97,6.789-11.514,2.191-2.47,5.029-5.953,8-9.247C21.612,14.389,34.276-.025,35.039-.02V-.027l.007.007a.033.033,0,0,1,.029.033c.753.845,13.27,14.882,18.108,20.248,2.97,3.3,5.808,6.777,8,9.248,4.031,4.543,5.945,9.721,6.79,11.514,2.484,5.274,1.988,10.947,1.988,13.3-.456,11.317-8.885,17.491-18.2,17.491A16.625,16.625,0,0,1,38.5,65.133L41.968,83.3ZM34.99,56.164q-.01-.1-.02-.207c-.008.069-.017.138-.026.207Z" transform="translate(56 331.027)"/>
  </g>
</svg>
