<svg xmlns="http://www.w3.org/2000/svg" xmlns:xlink="http://www.w3.org/1999/xlink" viewBox="0 0 100 150">
  <defs>
    <style>
      .cls-1 {
        fill: #fff;
      }

      .cls-2, .cls-3 {
        fill: #d52a29;
      }

      .cls-2 {
        font-size: 14px;
        font-family: HelveticaNeue-Bold, Helvetica Neue;
        font-weight: 700;
      }

      .cls-4 {
        filter: url(#Rectangle_1);
      }
    </style>
    <filter id="Rectangle_1" x="0" y="0" width="100" height="150" filterUnits="userSpaceOnUse">
      <feOffset dx="3" dy="3" input="SourceAlpha"/>
      <feGaussianBlur stdDeviation="10" result="blur"/>
      <feFlood flood-opacity="0.102"/>
      <feComposite operator="in" in2="blur"/>
      <feComposite in="SourceGraphic"/>
    </filter>
  </defs>
  <g id="Group_298" data-name="Group 298" transform="translate(-575 -532)">
    <g id="Group_214" data-name="Group 214" transform="translate(345 315)">
      <g id="Symbol_5_286" data-name="Symbol 5 – 286" transform="translate(117)">
        <g class="cls-4" transform="matrix(1, 0, 0, 1, 113, 217)">
          <rect id="Rectangle_1-2" data-name="Rectangle 1" class="cls-1" width="100" height="150" rx="5" />
        </g>
      </g>
      <g id="Group_10" data-name="Group 10" transform="translate(-25 -30)">
        <text id="_5" data-name="5" class="cls-2" transform="translate(263 263)"><tspan x="0" y="0">5</tspan></text>
        <g id="Symbol_2_129" data-name="Symbol 2 – 129" transform="translate(-177.159 -105)">
          <path id="Path_3" data-name="Path 3" class="cls-3" d="M-4.7-2.55l4.519-.473L4.351-3.5l-.981,9.02-9.019.98Z" transform="translate(443.626 377.699) rotate(-45)"/>
        </g>
      </g>
      <g id="Group_11" data-name="Group 11" transform="translate(585.142 614.291) rotate(180)">
        <text id="_5-2" data-name="5" class="cls-2" transform="translate(263 263)"><tspan x="0" y="0">5</tspan></text>
        <g id="Symbol_2_130" data-name="Symbol 2 – 130" transform="translate(-177.159 -105)">
          <path id="Path_3-2" data-name="Path 3" class="cls-3" d="M-4.7-2.55l4.519-.473L4.351-3.5l-.981,9.02-9.019.98Z" transform="translate(443.626 377.699) rotate(-45)"/>
        </g>
      </g>
    </g>
    <g id="Group_218" data-name="Group 218" transform="translate(232 -212)">
      <path id="Path_56" data-name="Path 56" class="cls-3" d="M-4.134-1.982,3.1-2.738,10.351-3.5,8.783,10.935-5.649,12.5Z" transform="translate(391.467 813.699) rotate(-45)"/>
      <path id="Path_58" data-name="Path 58" class="cls-3" d="M-4.134-1.982,3.1-2.738,10.351-3.5,8.783,10.935-5.649,12.5Z" transform="translate(403.467 795.699) rotate(-45)"/>
      <path id="Path_59" data-name="Path 59" class="cls-3" d="M-4.134-1.982,3.1-2.738,10.351-3.5,8.783,10.935-5.649,12.5Z" transform="translate(380.467 833.699) rotate(-45)"/>
      <path id="Path_60" data-name="Path 60" class="cls-3" d="M-4.134-1.982,3.1-2.738,10.351-3.5,8.783,10.935-5.649,12.5Z" transform="translate(403.467 833.699) rotate(-45)"/>
      <path id="Path_57" data-name="Path 57" class="cls-3" d="M-4.134-1.982,3.1-2.738,10.351-3.5,8.783,10.935-5.649,12.5Z" transform="translate(380.467 795.699) rotate(-45)"/>
    </g>
  </g>
</svg>
