<svg xmlns="http://www.w3.org/2000/svg" xmlns:xlink="http://www.w3.org/1999/xlink" viewBox="0 0 100 150">
  <defs>
    <style>
      .cls-1 {
        fill: #fff;
      }

      .cls-2, .cls-3 {
        fill: #d52a29;
      }

      .cls-3 {
        font-size: 14px;
        font-family: HelveticaNeue-Bold, Helvetica Neue;
        font-weight: 700;
      }

      .cls-4 {
        filter: url(#Rectangle_1);
      }
    </style>
    <filter id="Rectangle_1" x="0" y="0" width="100" height="150" filterUnits="userSpaceOnUse">
      <feOffset dx="3" dy="3" input="SourceAlpha"/>
      <feGaussianBlur stdDeviation="10" result="blur"/>
      <feFlood flood-opacity="0.102"/>
      <feComposite operator="in" in2="blur"/>
      <feComposite in="SourceGraphic"/>
    </filter>
  </defs>
  <g id="Group_200" data-name="Group 200" transform="translate(-872 -476)">
    <g id="Group_164" data-name="Group 164" transform="translate(759 259)">
      <g id="Symbol_5_301" data-name="Symbol 5 – 301">
        <g class="cls-4" transform="matrix(1, 0, 0, 1, 113, 217)">
          <rect id="Rectangle_1-2" data-name="Rectangle 1" class="cls-1" width="100" height="150" rx="5" />
        </g>
      </g>
      <g id="Group_1" data-name="Group 1" transform="translate(-27 -30)">
        <g id="Symbol_1_166" data-name="Symbol 1 – 166" transform="translate(-235.479 -95.719)">
          <path id="Union_5" data-name="Union 5" class="cls-2" d="M5.779,9.252a2.825,2.825,0,0,1-2.765,2.529A2.9,2.9,0,0,1,.006,8.89a4.824,4.824,0,0,1,.329-2.2,6.982,6.982,0,0,1,1.122-1.9c.362-.408.831-.984,1.322-1.528C3.571,2.382,5.664,0,5.791,0h0a.005.005,0,0,1,0,.005c.125.14,2.193,2.459,2.992,3.346.491.545.96,1.12,1.322,1.528a6.985,6.985,0,0,1,1.122,1.9,4.824,4.824,0,0,1,.329,2.2,2.9,2.9,0,0,1-3.007,2.891A2.829,2.829,0,0,1,5.779,9.252Z" transform="translate(392.047 374.591) rotate(180)"/>
        </g>
        <text id="_8" data-name="8" class="cls-3" transform="translate(146 263)"><tspan x="0" y="0">8</tspan></text>
      </g>
      <g id="Group_2" data-name="Group 2" transform="translate(352.568 615.872) rotate(180)">
        <g id="Symbol_1_167" data-name="Symbol 1 – 167" transform="translate(-235.479 -95.719)">
          <path id="Union_5-2" data-name="Union 5" class="cls-2" d="M5.779,9.252a2.825,2.825,0,0,1-2.765,2.529A2.9,2.9,0,0,1,.006,8.89a4.824,4.824,0,0,1,.329-2.2,6.982,6.982,0,0,1,1.122-1.9c.362-.408.831-.984,1.322-1.528C3.571,2.382,5.664,0,5.791,0h0a.005.005,0,0,1,0,.005c.125.14,2.193,2.459,2.992,3.346.491.545.96,1.12,1.322,1.528a6.985,6.985,0,0,1,1.122,1.9,4.824,4.824,0,0,1,.329,2.2,2.9,2.9,0,0,1-3.007,2.891A2.829,2.829,0,0,1,5.779,9.252Z" transform="translate(392.047 374.591) rotate(180)"/>
        </g>
        <text id="_8-2" data-name="8" class="cls-3" transform="translate(147 263)"><tspan x="0" y="0">8</tspan></text>
      </g>
    </g>
    <g id="Group_187" data-name="Group 187" transform="translate(217 -33)">
      <g id="Group_182" data-name="Group 182" transform="translate(346.022 -12.872)">
        <g id="Group_172" data-name="Group 172">
          <path id="Union_11" data-name="Union 11" class="cls-2" d="M7.788,12.469a3.807,3.807,0,0,1-3.727,3.408,3.9,3.9,0,0,1-4.053-3.9A6.5,6.5,0,0,1,.452,9.019,9.409,9.409,0,0,1,1.964,6.455C2.452,5.9,3.084,5.129,3.745,4.4,4.813,3.211,7.634,0,7.8,0V0a.007.007,0,0,1,.006.007c.168.188,2.955,3.314,4.033,4.51.661.734,1.294,1.509,1.782,2.06a9.414,9.414,0,0,1,1.512,2.564,6.5,6.5,0,0,1,.443,2.962A3.9,3.9,0,0,1,11.528,16,3.812,3.812,0,0,1,7.788,12.469Z" transform="translate(356.568 577.872) rotate(180)"/>
        </g>
        <g id="Group_173" data-name="Group 173" transform="translate(0 18)">
          <path id="Union_11-2" data-name="Union 11" class="cls-2" d="M7.788,12.469a3.807,3.807,0,0,1-3.727,3.408,3.9,3.9,0,0,1-4.053-3.9A6.5,6.5,0,0,1,.452,9.019,9.409,9.409,0,0,1,1.964,6.455C2.452,5.9,3.084,5.129,3.745,4.4,4.813,3.211,7.634,0,7.8,0V0a.007.007,0,0,1,.006.007c.168.188,2.955,3.314,4.033,4.51.661.734,1.294,1.509,1.782,2.06a9.414,9.414,0,0,1,1.512,2.564,6.5,6.5,0,0,1,.443,2.962A3.9,3.9,0,0,1,11.528,16,3.812,3.812,0,0,1,7.788,12.469Z" transform="translate(356.568 577.872) rotate(180)"/>
        </g>
        <g id="Group_174" data-name="Group 174" transform="translate(0 36)">
          <path id="Union_11-3" data-name="Union 11" class="cls-2" d="M7.788,12.469a3.807,3.807,0,0,1-3.727,3.408,3.9,3.9,0,0,1-4.053-3.9A6.5,6.5,0,0,1,.452,9.019,9.409,9.409,0,0,1,1.964,6.455C2.452,5.9,3.084,5.129,3.745,4.4,4.813,3.211,7.634,0,7.8,0V0a.007.007,0,0,1,.006.007c.168.188,2.955,3.314,4.033,4.51.661.734,1.294,1.509,1.782,2.06a9.414,9.414,0,0,1,1.512,2.564,6.5,6.5,0,0,1,.443,2.962A3.9,3.9,0,0,1,11.528,16,3.812,3.812,0,0,1,7.788,12.469Z" transform="translate(356.568 577.872) rotate(180)"/>
        </g>
        <g id="Group_189" data-name="Group 189" transform="translate(0 54)">
          <path id="Union_11-4" data-name="Union 11" class="cls-2" d="M7.788,12.469a3.807,3.807,0,0,1-3.727,3.408,3.9,3.9,0,0,1-4.053-3.9A6.5,6.5,0,0,1,.452,9.019,9.409,9.409,0,0,1,1.964,6.455C2.452,5.9,3.084,5.129,3.745,4.4,4.813,3.211,7.634,0,7.8,0V0a.007.007,0,0,1,.006.007c.168.188,2.955,3.314,4.033,4.51.661.734,1.294,1.509,1.782,2.06a9.414,9.414,0,0,1,1.512,2.564,6.5,6.5,0,0,1,.443,2.962A3.9,3.9,0,0,1,11.528,16,3.812,3.812,0,0,1,7.788,12.469Z" transform="translate(356.568 577.872) rotate(180)"/>
        </g>
      </g>
      <g id="Group_183" data-name="Group 183" transform="translate(366.022 -12.872)">
        <g id="Group_172-2" data-name="Group 172">
          <path id="Union_11-5" data-name="Union 11" class="cls-2" d="M7.788,12.469a3.807,3.807,0,0,1-3.727,3.408,3.9,3.9,0,0,1-4.053-3.9A6.5,6.5,0,0,1,.452,9.019,9.409,9.409,0,0,1,1.964,6.455C2.452,5.9,3.084,5.129,3.745,4.4,4.813,3.211,7.634,0,7.8,0V0a.007.007,0,0,1,.006.007c.168.188,2.955,3.314,4.033,4.51.661.734,1.294,1.509,1.782,2.06a9.414,9.414,0,0,1,1.512,2.564,6.5,6.5,0,0,1,.443,2.962A3.9,3.9,0,0,1,11.528,16,3.812,3.812,0,0,1,7.788,12.469Z" transform="translate(356.568 577.872) rotate(180)"/>
        </g>
        <g id="Group_173-2" data-name="Group 173" transform="translate(0 18)">
          <path id="Union_11-6" data-name="Union 11" class="cls-2" d="M7.788,12.469a3.807,3.807,0,0,1-3.727,3.408,3.9,3.9,0,0,1-4.053-3.9A6.5,6.5,0,0,1,.452,9.019,9.409,9.409,0,0,1,1.964,6.455C2.452,5.9,3.084,5.129,3.745,4.4,4.813,3.211,7.634,0,7.8,0V0a.007.007,0,0,1,.006.007c.168.188,2.955,3.314,4.033,4.51.661.734,1.294,1.509,1.782,2.06a9.414,9.414,0,0,1,1.512,2.564,6.5,6.5,0,0,1,.443,2.962A3.9,3.9,0,0,1,11.528,16,3.812,3.812,0,0,1,7.788,12.469Z" transform="translate(356.568 577.872) rotate(180)"/>
        </g>
        <g id="Group_174-2" data-name="Group 174" transform="translate(0 36)">
          <path id="Union_11-7" data-name="Union 11" class="cls-2" d="M7.788,12.469a3.807,3.807,0,0,1-3.727,3.408,3.9,3.9,0,0,1-4.053-3.9A6.5,6.5,0,0,1,.452,9.019,9.409,9.409,0,0,1,1.964,6.455C2.452,5.9,3.084,5.129,3.745,4.4,4.813,3.211,7.634,0,7.8,0V0a.007.007,0,0,1,.006.007c.168.188,2.955,3.314,4.033,4.51.661.734,1.294,1.509,1.782,2.06a9.414,9.414,0,0,1,1.512,2.564,6.5,6.5,0,0,1,.443,2.962A3.9,3.9,0,0,1,11.528,16,3.812,3.812,0,0,1,7.788,12.469Z" transform="translate(356.568 577.872) rotate(180)"/>
        </g>
        <g id="Group_188" data-name="Group 188" transform="translate(0 54)">
          <path id="Union_11-8" data-name="Union 11" class="cls-2" d="M7.788,12.469a3.807,3.807,0,0,1-3.727,3.408,3.9,3.9,0,0,1-4.053-3.9A6.5,6.5,0,0,1,.452,9.019,9.409,9.409,0,0,1,1.964,6.455C2.452,5.9,3.084,5.129,3.745,4.4,4.813,3.211,7.634,0,7.8,0V0a.007.007,0,0,1,.006.007c.168.188,2.955,3.314,4.033,4.51.661.734,1.294,1.509,1.782,2.06a9.414,9.414,0,0,1,1.512,2.564,6.5,6.5,0,0,1,.443,2.962A3.9,3.9,0,0,1,11.528,16,3.812,3.812,0,0,1,7.788,12.469Z" transform="translate(356.568 577.872) rotate(180)"/>
        </g>
      </g>
    </g>
  </g>
</svg>
