<svg xmlns="http://www.w3.org/2000/svg" xmlns:xlink="http://www.w3.org/1999/xlink" viewBox="0 0 100 150">
  <defs>
    <style>
      .cls-1 {
        fill: #fff;
      }

      .cls-2 {
        font-size: 14px;
        font-family: HelveticaNeue-Bold, Helvetica Neue;
        font-weight: 700;
      }

      .cls-3 {
        filter: url(#Rectangle_1);
      }
    </style>
    <filter id="Rectangle_1" x="0" y="0" width="100" height="150" filterUnits="userSpaceOnUse">
      <feOffset dx="3" dy="3" input="SourceAlpha"/>
      <feGaussianBlur stdDeviation="10" result="blur"/>
      <feFlood flood-opacity="0.102"/>
      <feComposite operator="in" in2="blur"/>
      <feComposite in="SourceGraphic"/>
    </filter>
  </defs>
  <g id="Group_145" data-name="Group 145" transform="translate(-124 -271)">
    <g id="Group_98" data-name="Group 98" transform="translate(-483 48)">
      <g id="Group_7" data-name="Group 7">
        <g id="Symbol_5_304" data-name="Symbol 5 – 304" transform="translate(494 6)">
          <g class="cls-3" transform="matrix(1, 0, 0, 1, 113, 217)">
            <rect id="Rectangle_1-2" data-name="Rectangle 1" class="cls-1" width="100" height="150" rx="5" />
          </g>
        </g>
        <g id="Group_5" data-name="Group 5" transform="translate(-27 -30)">
          <text id="_2" data-name="2" class="cls-2" transform="translate(640 269)"><tspan x="0" y="0">2</tspan></text>
          <g id="Symbol_4_145" data-name="Symbol 4 – 145" transform="translate(116.711 -90)">
            <path id="Union_4" data-name="Union 4" d="M4.311,13.067l.521-2.8a2.6,2.6,0,0,1-1.966.906A2.752,2.752,0,0,1,.006,8.426a4.587,4.587,0,0,1,.313-2.09A6.639,6.639,0,0,1,1.386,4.527c.344-.388.79-.935,1.257-1.453.753-.836,2.744-3.1,2.863-3.1h0a.005.005,0,0,1,0,.005C5.63.112,7.6,2.318,8.357,3.161c.467.518.913,1.065,1.257,1.453a6.642,6.642,0,0,1,1.067,1.809,4.587,4.587,0,0,1,.312,2.09,2.752,2.752,0,0,1-2.86,2.749,2.612,2.612,0,0,1-2.083-1.05l.544,2.854ZM5.5,8.8l0-.033,0,.033Z" transform="translate(522.289 363.332)"/>
          </g>
        </g>
        <g id="Group_6" data-name="Group 6" transform="translate(1341 626.399) rotate(180)">
          <text id="_2-2" data-name="2" class="cls-2" transform="translate(641 269)"><tspan x="0" y="0">2</tspan></text>
          <g id="Symbol_4_146" data-name="Symbol 4 – 146" transform="translate(116.711 -90)">
            <path id="Union_4-2" data-name="Union 4" d="M4.311,13.067l.521-2.8a2.6,2.6,0,0,1-1.966.906A2.752,2.752,0,0,1,.006,8.426a4.587,4.587,0,0,1,.313-2.09A6.639,6.639,0,0,1,1.386,4.527c.344-.388.79-.935,1.257-1.453.753-.836,2.744-3.1,2.863-3.1h0a.005.005,0,0,1,0,.005C5.63.112,7.6,2.318,8.357,3.161c.467.518.913,1.065,1.257,1.453a6.642,6.642,0,0,1,1.067,1.809,4.587,4.587,0,0,1,.312,2.09,2.752,2.752,0,0,1-2.86,2.749,2.612,2.612,0,0,1-2.083-1.05l.544,2.854ZM5.5,8.8l0-.033,0,.033Z" transform="translate(522.289 363.332)"/>
          </g>
        </g>
      </g>
    </g>
    <g id="Group_102" data-name="Group 102" transform="translate(-24.763 -12)">
      <g id="Group_100" data-name="Group 100" transform="translate(185.237 329)">
        <path id="Path_39" data-name="Path 39" d="M5.81,0A5.682,5.682,0,0,0,.235,5.783c0,3.194-.534,14.238.01,17.761-.08.417,4.387-4.669,6.036-6.5.982-1.089,1.92-2.241,2.645-3.058A13.97,13.97,0,0,0,11.17,10.18a9.652,9.652,0,0,0,.658-4.4A5.792,5.792,0,0,0,5.81,0Z" transform="translate(11.841 23.571) rotate(180)"/>
        <path id="Path_40" data-name="Path 40" d="M6.031,0a5.683,5.683,0,0,1,5.576,5.784c0,3.194-.047,17.97-.047,17.97s-4.35-4.878-6-6.708c-.982-1.089-1.92-2.241-2.645-3.058A13.97,13.97,0,0,1,.671,10.18a9.652,9.652,0,0,1-.658-4.4A5.792,5.792,0,0,1,6.031,0Z" transform="translate(23.146 23.754) rotate(180)"/>
        <path id="Path_41" data-name="Path 41" d="M606.225,291.5l-1.67,8.972h4.805l-1.711-8.972Z" transform="translate(-595.483 -272.92)"/>
      </g>
      <g id="Group_101" data-name="Group 101" transform="translate(208.383 386.959) rotate(180)">
        <path id="Path_39-2" data-name="Path 39" d="M5.81,0A5.682,5.682,0,0,0,.235,5.783c0,3.194-.534,14.238.01,17.761-.08.417,4.387-4.669,6.036-6.5.982-1.089,1.92-2.241,2.645-3.058A13.97,13.97,0,0,0,11.17,10.18a9.652,9.652,0,0,0,.658-4.4A5.792,5.792,0,0,0,5.81,0Z" transform="translate(11.841 23.571) rotate(180)"/>
        <path id="Path_40-2" data-name="Path 40" d="M6.031,0a5.683,5.683,0,0,1,5.576,5.784c0,3.194-.047,17.97-.047,17.97s-4.35-4.878-6-6.708c-.982-1.089-1.92-2.241-2.645-3.058A13.97,13.97,0,0,1,.671,10.18a9.652,9.652,0,0,1-.658-4.4A5.792,5.792,0,0,1,6.031,0Z" transform="translate(23.146 23.754) rotate(180)"/>
        <path id="Path_41-2" data-name="Path 41" d="M1.67,0,0,8.972H4.805L3.094,0Z" transform="translate(9.071 18.58)"/>
      </g>
    </g>
  </g>
</svg>
